<svg xmlns="http://www.w3.org/2000/svg" width="459.8" height="350.1" viewBox="0 0 459.754 350.074"><path d="M165.4 70l-.2.2a6.4 6.4 0 0 1-4.5 2.2l2.8-4.8c1.8-3.2.2-6.1-2.7-6.1-2.3 0-4 .9-5.8 3.9l-1.4 2.6-1.3 2-.1.2c-2.2 2.5-4.3 4.5-5.6 4.5-.7 0-1-.4-.4-1.6l6.5-11.2h2.4l.9-1.5h-2.5l2.8-4.9h-3l-2.8 5h-2.7l-.9 1.4h2.8l-6 10.4c-1.3 2.2-.4 4.3 2 4.3 1.7 0 3.7-1.3 5.5-3.1 0 3.8 5.3 4.5 8.5.4h.7a9 9 0 0 0 6.1-2.9c-.2-.4-.7-.8-1-1zm-6.4.2h-.1c-1 0-1.8.8-1.8 1.8 0 .4.1.7.3 1-1.4 2.5-4.8 2-3-1.1l2.2-4 1.4-2.4c2.2-3.6 5-2.1 3.2 1l-2.2 3.7zm47.9-.2l-.2.2c-2.2 2.5-5 4.5-7 4.5-1.9 0-3-1.1-1.6-3.5l.3-.6c2 .8 5.5.5 7.8-3.4l.4-.8c1.6-2.7 0-4.8-2.4-4.8a6.3 6.3 0 0 0-5.6 3.4l-2.9 5-.2.2c-2.1 2.5-4.2 4.5-5.6 4.5-.6 0-1-.4-.3-1.6l4.3-7.6c1.3-2.3 0-4-1.6-4-1.3 0-2.7.8-4.2 2.4l4.8-8.4h-3L181.6 70l-.2.2c-2.2 2.5-4.3 4.5-5.6 4.5-.7 0-1-.4-.3-1.6l6.4-11.2h2.4l.9-1.5h-2.5l2.8-4.9h-3l-2.8 5H177l-.8 1.4h2.7l-6 10.4c-1.3 2.2-.4 4.3 2 4.3 1.2 0 2.5-.7 3.8-1.7l-.7 1.4h3l4.5-8c4.6-5.7 6.7-5 5.4-2.8l-3.9 6.8c-1.3 2.2-.4 4.3 2 4.3 1.8 0 3.8-1.4 5.7-3.3.1 2 1.7 3.3 4 3.3 3.4 0 6.8-2.7 9.3-5.6-.2-.4-.7-.8-1.1-1zm-5.7-4.2c1.7-3 4.8-2.5 3 .6l-.5.8c-1.4 2.4-3.3 2.4-4.5 2l2-3.4zM316 70l-.2.2a18.8 18.8 0 0 1-3.6 3.3c1-2.9.8-7.2 2.6-11l-2.2-1.3c-1.2 1.7-4 5.6-6.7 8.8l-.2.2c-2.1 2.5-4.2 4.5-5.5 4.5-.7 0-1-.4-.4-1.6l6.4-11.2h-3l-5.3 9.3c-2.3 2-4 3.2-4.6 3-.8-.4 0-1.5.3-2.1l5.9-10.2h-3l-4.7 8.1-.2.2a6.5 6.5 0 0 1-4.5 2.2l2.8-4.8c1.8-3.2.2-6.1-2.7-6.1-2.3 0-4 .9-5.8 3.9L280 68l-1.2 2-.1.2c-2.2 2.5-5 4.5-7 4.5-1.9 0-3-1.1-1.6-3.5l.3-.6c1.9.8 5.5.5 7.8-3.4l.4-.8c1.6-2.7 0-4.8-2.4-4.8a6.3 6.3 0 0 0-5.6 3.4l-2.9 5-.2.2a20 20 0 0 1-7 5.7l6.8-11.4h-1.8c0-1.3-1.3-3-3.1-3-1.6 0-3.9 1.4-5.2 3.5l-2.8 5-.2.2c-2.2 2.5-4.3 4.5-5.6 4.5-.7 0-1-.4-.4-1.6l3-5.3c1-1.8.6-2.8-.4-4l-1.7-2c-.4-.6-.4-1.2.2-1.8l-1.6-1.7c-1.7 1.6-1.8 3.3-.7 4.6l.2.4c-1.3 1.9-3 4.4-5 6.7l-.2.2a6.5 6.5 0 0 1-4.6 2.2l2.9-4.8c1.8-3.2.1-6.1-2.7-6.1-2.3 0-4.1.9-5.8 3.9l-1.5 2.6-1.2 2-.2.2a20 20 0 0 1-7 5.7l6.8-11.4h-1.8c0-1.3-1.3-3-3.1-3-1.6 0-3.9 1.4-5.2 3.5l-4.2 7.3c-1.2 2.2-.3 4.3 2 4.3 1 0 2-.4 3-1l-1 1.4c-4 1.2-6.5 2.8-6.5 5 0 3 4.4 3.6 6.6-.1l2.3-4c2.4-.7 4.7-2.1 7.1-4.4 0 3.8 5.3 4.5 8.6.4h.6a9 9 0 0 0 6.2-2.9 100 100 0 0 0 5-6.4l.3.5c.4.5.6 1.1.2 1.7l-3.2 5.5c-1.2 2.2-.3 4.3 2 4.3 1.6 0 3.3-1 4.9-2.5 0 1.4.9 2.5 2.6 2.5.8 0 1.8-.4 2.8-1L257 77c-4 1.2-6.6 2.8-6.6 5 0 3 4.4 3.6 6.6-.1l2.3-4c2.4-.7 4.8-2.2 7.3-4.6.1 1.9 1.6 3.3 4 3.3a11 11 0 0 0 7-3.2c-.1 3.9 5.3 4.7 8.5.5h.7c1 0 2.2-.3 3.3-.8-.8 2 0 3.5 1.7 3.5 1.6 0 3.5-1.5 4.9-3-.3 1.7.7 3 2.6 3 2.4 0 5.3-2.7 7.8-5.6 1.7-2 3.2-4 4.2-5.4-1.2 3-.5 8.7-3.4 8.7-1 0-1.4-1.1-1.4-1.1l-1.9 1s.6 2.4 3.3 2.4h.9v-.1c3.1-.4 6.1-2.8 8.4-5.5-.2-.4-.7-.9-1.2-1zm-43-4.2c1.8-3 4.8-2.5 3 .6l-.4.8c-1.4 2.4-3.3 2.4-4.5 2l2-3.4zm-57 15.6c-.6 1.1-1.7 1-1.7.1 0-.7.8-1.6 3-2.5l-1.3 2.4zm1.4-6.7c-.7 0-1-.4-.4-1.6l4.2-7.3c1.6-2.8 4.8-2 3.3.6l-2.2 4c-1.8 3-3.7 4.3-5 4.3zm18.4-4.5h-.2c-1 0-1.7.8-1.7 1.8 0 .4 0 .7.3 1-1.5 2.5-5 2-3.1-1.1l2.2-4 1.5-2.4c2-3.6 5-2.1 3.2 1l-2.2 3.7zm18.8 11.2c-.6 1.1-1.6 1-1.6.1 0-.7.7-1.6 3-2.5l-1.4 2.4zm1.4-6.7c-.7 0-1-.4-.4-1.6l4.2-7.3c1.6-2.8 4.8-2 3.3.6l-2.2 4c-1.8 3-3.7 4.3-5 4.3zm29.5-4.5h-.1c-1 0-1.8.8-1.8 1.8 0 .4.1.7.3 1-1.4 2.5-4.9 2-3-1.1l2.2-4 1.4-2.4c2.1-3.6 5-2.1 3.2 1l-2.2 3.7zm-184.1-3.4h28.9v2h-28.9zm227 0h28.9v2h-28.9z" fill="#766458"/><path d="M163.2 0h7.7l-1.2 45h-14.5l-2-18.6-2 18.5h-14.6L135.5 0h7.6l.7 37.2h.8L149.4 0h7.5l5 37.2h.7l.6-37.2zM195 37.2v7.7h-20.9V0h21v7.7h-13.3v10.8h10.6v7.7h-10.6v11H195zm21.4 0v7.7H198V0h7.6v37.2h10.7zm16.2-8.8l7.7-1.8v13.6c0 2.5-2.1 4.7-4.7 4.7h-11.5a4.8 4.8 0 0 1-4.7-4.7V4.7c0-2.6 2.1-4.7 4.7-4.7h11.5c2.6 0 4.7 2.1 4.7 4.7V14l-7.7 1.8v-8h-5.5v29.5h5.5v-8.8zM261 0c2.6 0 4.8 2.1 4.8 4.7v35.5c0 2.5-2.2 4.7-4.7 4.7h-11.5a4.8 4.8 0 0 1-4.7-4.7V4.7c0-2.6 2.1-4.7 4.7-4.7h11.5zm-2.9 7.7h-5.5v29.5h5.5V7.7zM290.8 0h7.6v45h-7.6V22.7l-3 11.5h-7.5l-3-11.5V45h-7.7V0h7.6l6.8 21.7L290.8 0zm32.3 37.2v7.7h-20.9V0h21v7.7h-13.3v10.8h10.6v7.7h-10.6v11H323z" fill="#81B3D3"/><path d="M44.5 157.6c-3.6-3-8.2-5-13-5-3.5 0-8.3 2.1-8.3 6.3 0 4.4 5.3 6 8.7 7.1l5 1.5c10.3 3.1 18.4 8.4 18.4 20.5 0 7.4-1.8 15-7.8 20.1-5.8 5-13.7 7-21.2 7-9.4 0-18.7-3.1-26.3-8.5L8.3 191a26.7 26.7 0 0 0 17.3 7.7c4.6 0 9.4-2.3 9.4-7.5 0-5.5-7.6-7.4-11.8-8.6C11 179.1 3 176 3 161.5c0-15.2 10.8-25.1 25.8-25.1 7.5 0 16.8 2.3 23.4 6.1l-7.7 15.1zm47.3-2.8v12.5h22v16.5h-22v13H115v16.4H72.4v-74.8H115v16.4H91.8zm37.6-16.4H157c20.9 0 38 16.3 38 37.4 0 21-17.2 37.4-38 37.4h-27.6v-74.8zm19.5 58.3h4.3c11.7 0 21.6-6.3 21.6-21 0-13.3-8.9-20.9-21.4-20.9H149v42zm138-22.3a39.8 39.8 0 0 1-41.4 41.3c-24 0-41.4-17-41.4-41.3 0-22.6 19.8-38.5 41.4-38.5s41.4 15.9 41.4 38.5zm-62.6 0c0 13 9.6 22.4 21.2 22.4s21.1-9.4 21.1-22.3c0-10.3-9.5-19.8-21.1-19.8-11.6 0-21.2 9.5-21.2 19.8zm72.9-36h19.5l35.6 45.7h.2v-45.7H372v74.8h-19.5L317 167.3h-.2v45.9h-19.5v-74.8zm110.1 61.8l-5.1 13h-20.7l28.8-74.8h21.3l28.2 74.8H439l-4.9-13h-26.8zm13.6-38.7h-.2l-8 23.8H429l-8-23.8z" fill="#FFF"/><g fill="#FFF"><path d="M108 287.7c7.7-2.5 8.3-12.1.8-12.1-2.1 0-4.6 1.4-6.3 4.4l-10.2 17.7-1.5 2.1c-2.6-3.6-1.8-9 1.9-11.4l-1.6-1.9c-8 5-5.6 19.7 7.7 19.7 11.3 0 16.6-13.6 9.3-18.5zm-9.3 15.6c-2.3 0-4-.5-5.5-1.3l2-2.7 6.3-11h1c9 1.9 5.4 15-3.8 15zm4-17.3l3.2-5.3c2.7-4.7 6.3-2 4.4 1.6-1.5 2.8-3.6 3.6-7.5 3.7z"/><path d="M140.2 300c-.7 2.3.5 4 3.1 4 1.5 0 3.4-1 5.3-2.4.1 1.5 1.3 2.5 3.2 2.5 2 0 4.3-1.4 6.4-3.4-.4 2 .6 3.4 2.4 3.4 2.1 0 4.5-2 6.3-3.7-.4 2 .8 3.7 3.2 3.7 3.2 0 6.8-3.4 10-7l-.2-.2c2.1-2.4 4-5 5.3-6.8-1.5 4-.7 11-4.3 11-1.3 0-1.8-1.3-1.8-1.3l-2.4 1.2s.7 3 4.2 3h1.1c2.8-.4 5.6-2 8-4.3 0 2.5 2 4.4 5.1 4.4 4.3 0 8.6-3.4 11.7-7-.2-.5-.9-1.1-1.4-1.3l-.2.3c-2.8 3.1-6.3 5.6-9 5.6-2.3 0-3.7-1.4-2-4.5l.5-.6c2.4 1 7 .5 9.8-4.4l.6-1c2-3.5 0-6-3-6a8 8 0 0 0-7.2 4.3l-3.6 6.3h-.1l-.3.3c-1.4 1.6-3 3-4.6 4 1.2-3.5 1-9 3.3-14l-2.8-1.5c-1.6 2.2-5 7.2-8.4 11.2v.2c-2.8 3.1-5.5 5.6-7.1 5.6-.9 0-1.4-.5-.5-2l8.1-14.2h-3.8l-6.7 11.8c-3 2.6-5.1 4-5.9 3.7-1-.4 0-1.8.5-2.6l7.4-13h-3.8l-6 10.5-.3-.1-.3.3c-2.7 3.1-5.4 5.6-7 5.6-.9 0-1.3-.5-.5-2l6.2-10.8h-2.2c.2-1.6-1.5-3.8-4-3.8-2 0-4.9 1.6-6.5 4.4l-3.8 6.6-.6-.3-.2.3c-2.8 3.1-6.3 5.6-9 5.6-2.3 0-3.7-1.4-1.9-4.5l3.9-6.8c2.2-3.7 6-3.1 3.8.8l-.6 1h3.1l.6-1c2-3.5 0-6-3-6a8 8 0 0 0-7.1 4.3l-3.8 6.5-.4-.2-.2.3c-2.8 3.1-6.3 5.6-9 5.6-2.3 0-3.6-1.4-1.9-4.5l.4-.6c2.4 1 7 .5 9.9-4.4l.5-1c2-3.5 0-6-3-6a8 8 0 0 0-7.1 4.3l-4 6.8c-2.4 4-.3 7.8 4.2 7.8 3.3 0 6.6-2 9.4-4.7-.1 2.7 1.9 4.7 5.1 4.7 3.1 0 6.2-1.8 8.9-4.1zm58-9.6c2.2-3.7 6-3.1 3.8.8l-.6 1c-1.8 3-4.2 3-5.7 2.5l2.5-4.3zm-54.2 9.3l5.3-9.3c2-3.5 6-2.6 4.2.8l-3 5.2c-2.2 3.6-4.5 5.3-6 5.3-.9 0-1.4-.5-.5-2zm-24.2-9.3c2.2-3.7 6-3.1 3.8.8l-.5 1c-1.9 3-4.3 3-5.7 2.5l2.4-4.3zM248.4 304c4.3 0 8.6-3.3 11.7-7-.2-.4-1-1-1.4-1.2l-.3.3c-2.7 3.1-6.2 5.6-8.9 5.6-2.3 0-3.7-1.4-2-4.5l.4-.6c2.5 1 7 .5 10-4.4l.5-1c2-3.5 0-6-3-6a8 8 0 0 0-7.2 4.3l-3.7 6.3-.3.3c-2.8 3.1-5.4 5.6-7.1 5.6-.9 0-1.3-.5-.5-2l5.5-9.6c1.7-3 0-5-2-5-1.7 0-3.4 1-5.3 2.9l6-10.5H237L226.3 296l-.4-.2-.2.3c-2.8 3.1-5.4 5.6-7.1 5.6-.9 0-1.3-.5-.5-2l8.2-14.2h3l1.2-1.8h-3.2l3.6-6.2h-3.8l-3.6 6.2h-3.4l-1 1.8h3.4l-7.6 13.2c-1.6 2.8-.5 5.4 2.6 5.4 1.8 0 3.9-1.2 6-3l-1.6 2.6h3.8l5.8-10c5.8-7.3 8.4-6.4 6.8-3.6l-5 8.6c-1.5 2.8-.4 5.4 2.6 5.4 2.4 0 5-1.8 7.4-4.2 0 2.4 2 4.2 5.1 4.2zm3-13.6c2.2-3.7 6.1-3.1 3.9.8l-.6 1c-1.8 3-4.3 3-5.7 2.5l2.5-4.3zm112 5.4l-.2.3c-2.8 3.1-5.4 5.6-7.1 5.6-.9 0-1.3-.5-.5-2l12.9-22.2h-3.8L359 287c-.6-1-1.9-2-3.5-2-2 0-4.8 1.6-6.4 4.4l-3.8 6.4-.2-.1-.2.3c-2.8 3.1-5.4 5.6-7.1 5.6-.9 0-1.3-.5-.5-2l5.5-9.6c1.7-3 0-5-2-5-1.7 0-3.4.9-5.3 2.9l1.4-2.5h-3.8l-6 10.5-.4-.2-.2.3c-2.8 3.1-5.4 5.6-7.1 5.6-.8 0-1.3-.5-.4-2l6-10.8h-2c0-1.6-1.6-3.8-4-3.8-2 0-5 1.6-6.5 4.4l-3.7 6.3-.2.3c-2.7 3.1-5.4 5.6-7 5.6-1 0-1.4-.5-.5-2l3.8-6.7c1.3-2.3.7-3.6-.6-5.1l-2-2.6c-.6-.7-.6-1.4.1-2.2l-2-2.1c-2 2-2.3 4-1 5.8l.4.5c-1.7 2.3-4 5.5-6.4 8.5l.2.3c-3 3.6-5.7 5.9-8.7 7.2l4.8-8.3H286l-.4.7c-2 3.5-4.3 6-7.3 6-2.5 0-3-2.5-.8-6.4l1.1-1.9 2.1.2c13.5 0 20-18 8.2-18-2.1 0-4.6 1.4-6.3 4.4l-5.9 10.2a6.1 6.1 0 0 1-3.4-5.4 6 6 0 0 1 2.5-4.8l-1.3-2.2a8.6 8.6 0 0 0-3.9 7c0 3 1.7 6 4.8 7.6l-1.1 2c-2.7 4.6-2.2 9.7 3.1 9.7 1.6 0 3-.5 4.2-1.2l-1 1.7c-5.2 1.6-8.3 3.6-8.3 6.5 0 3.6 5.5 4.4 8.3-.3l2.9-5c4-1.2 7.8-4 12-8.7l-.3-.4c1.7-2 3.1-3.9 6-7.8l.5.7c.5.6.6 1.3.2 2.1l-4 7c-1.6 2.8-.5 5.4 2.6 5.4 1.9 0 4-1.3 6-3 0 1.7 1.2 3 3.3 3 1.6 0 3.5-1 5.3-2.5.2 1.5 1.3 2.5 3.3 2.5 1.8 0 3.8-1.2 5.7-2.8l-1.4 2.4h3.8l5.8-10c5.8-7.3 8.4-6.4 6.8-3.6l-5 8.6c-1.5 2.8-.4 5.4 2.6 5.4 2 0 4.3-1.4 6.4-3.4-.2 2 1 3.4 3.3 3.4 1.6 0 3.5-1 5.3-2.5.2 1.5 1.3 2.5 3.3 2.5 3.1 0 6.7-3.4 9.8-7-.2-.5-.9-1.1-1.4-1.3zm-78-14.2c1.2-2 2.4-2.8 3.5-2.8 6 0 1.8 12.3-8.1 12.3h-.8l5.5-9.5zm-8 28.6c-.8 1.4-2 1.2-2 .2s.8-2.1 3.7-3.3l-1.7 3.1zm39.7-13.8c-2.3 3.6-4.6 5.3-6.1 5.3-.9 0-1.4-.5-.5-2l5.3-9.3c2-3.5 6.1-2.6 4.2.8l-3 5.2zm36.7-.2c-2.3 3.8-4.6 5.5-6.2 5.5-.9 0-1.4-.5-.5-2l5.3-9.3c2-3.5 6-2.6 4.2.8l-2.8 5zm-117.1 35.6l-.2.3c-2.8 3.1-5.4 5.6-7.1 5.6-.9 0-1.3-.5-.5-2l5.5-9.6c1.7-3 0-5-2-5-1.7 0-3.4.9-5.3 2.9l1.4-2.5h-3.7l-6.2 10.6c-.1-.2-.3-.3-.4-.3l-.3.3a8.2 8.2 0 0 1-5.7 2.8l3.5-6.2c2.3-4 .2-7.7-3.3-7.7-3 0-5.2 1.1-7.4 5l-1.9 3.2-1.6 2.8-.3-.2-.3.3c-3.1 3.6-5.8 5.9-8.8 7.2l10.4-17.8h-3.8l-6.7 11.7c-3 2.7-5.2 4.1-5.9 3.8-1-.4 0-1.8.5-2.6l7.4-13h-3.8l-6 10.6-.4-.2-.3.3c-2.7 3.1-5.3 5.6-7 5.6-.9 0-1.3-.5-.5-2l5.5-9.6c1.6-2.9 0-5-2-5-1.7 0-3.4.9-5.3 2.9l1.4-2.5h-3.8l-6 10.5-.4-.2-.2.3c-2.8 3.1-5.4 5.6-7.1 5.6-.8 0-1.3-.5-.4-2l6-10.8h-2c0-1.6-1.6-3.8-4-3.8-2 0-5 1.6-6.5 4.4l-4 6.8c-.2-.3-.5-.5-.8-.5l-.2.3c-2.8 3.1-6.1 5.6-9.9 5.6-2.6 0-4.1-2.5-1.9-6.4l1-1.9 2.2.2c4 0 8.7-2 11.7-7.3 1-1.8 1.5-3.6 1.5-5 0-3.5-2.2-5.7-5-5.7-2.1 0-4.6 1.4-6.3 4.4l-6 10.2a6.1 6.1 0 0 1-3.3-5.4 6 6 0 0 1 2.4-4.8l-1.2-2.2a8.6 8.6 0 0 0-4 7c0 3 1.8 6 4.9 7.6l-1.2 2c-2.6 4.6-1 9.7 4.3 9.7a14 14 0 0 0 10-4.4c-.9 2.4.3 4.4 3 4.4 1.6 0 3.5-1 5.3-2.5.2 1.5 1.3 2.5 3.3 2.5 1.8 0 3.8-1.1 5.7-2.8l-1.4 2.4h3.8l5.8-10c5.8-7.3 8.4-6.4 6.8-3.6l-5 8.6c-1.5 2.8-.4 5.4 2.6 5.4 2 0 4.3-1.4 6.5-3.4-.4 2 .5 3.4 2.4 3.4 1.8 0 4-1.5 5.6-3l-2 3.5c-5.2 1.5-8.4 3.6-8.4 6.5 0 3.6 5.6 4.4 8.3-.3l3-5c3-1 6.2-3 9.5-6.2-.5 5.3 6.5 6.5 10.8 1.2h.8a11 11 0 0 0 5-1.5l-2.6 4.4h3.8l5.8-10c5.8-7.3 8.4-6.4 6.8-3.6l-5 8.6c-1.5 2.8-.4 5.4 2.7 5.4 3 0 6.7-3.4 9.8-7-.2-.5-.9-1.1-1.4-1.3zm-94.4-14.2c1.2-2 2.4-2.8 3.5-2.8 1.4 0 2 1 2 2.4 0 3.5-4.3 9.9-10.2 9.9h-.7l5.4-9.5zm13.4 14.8c-2.3 3.6-4.6 5.3-6.1 5.3-.9 0-1.4-.5-.5-2l5.3-9.3c2-3.5 6-2.6 4.2.8l-3 5.2zm28.8 13.8c-.8 1.4-2 1.2-2 .2s.9-2.1 3.8-3.3l-1.8 3.1zm25.6-14.2h-.2c-1.3 0-2.2 1-2.2 2.3 0 .5.1.9.3 1.3-1.8 3-6.1 2.5-3.9-1.4l2.9-5 1.8-3.1c2.7-4.5 6.3-2.8 4 1.2l-2.7 4.7zm114.5 1c-.2-.5-.9-1-1.4-1.2l-.3.3c-1.3 1.6-3 3-4.5 4 1.2-3.5 1-9 3.3-14l-2.9-1.5c-1.5 2.2-5 7.2-8.4 11.2l-.3.3c-2.7 3.1-5.4 5.6-7 5.6-.9 0-1.7-.8-1.7-2.5v-1.6c2.7.4 5.5-1.4 7.3-4.5l1-1.7c3.5-6.1-2.3-8.1-6.1-4.6l5.4-9.3h-3.8l-10.8 18.7a3 3 0 0 0-.7-.4l-.3.3c-2.7 3.1-6.2 5.6-8.9 5.6-2.3 0-3.7-1.4-2-4.5l4-6.8c2.1-3.7 6-3 3.7.8l-.5 1h3.1l.6-1c2-3.5 0-6-3-6a8 8 0 0 0-7.2 4.3l-3.7 6.4-.3-.1-.2.3c-2.7 3.1-5.4 5.6-7 5.6-1 0-1.4-.5-.5-2l8-14.2h-3.7l-6.8 11.8c-2.8 2.6-5 4-5.8 3.7-1-.4 0-1.8.5-2.6l7.4-13h-3.8l-7.4 12.8c-.8.8-1.6 1.4-2.4 2 1.2-3.6 1-9.2 3.3-14l-2.9-1.6a501.3 501.3 0 0 1-13.7 17.8c.3.5.8 1 1.4 1.3l10.7-13.5c-1.5 3.9-.7 11-4.3 11-1.3 0-1.8-1.4-1.8-1.4l-2.4 1.2s.7 3 4.2 3h1.2c1.9-.3 3.8-1.2 5.6-2.4 0 1.5 1 2.5 2.5 2.5 2 0 4.4-2 6.2-3.7-.3 2 .9 3.7 3.3 3.7 2.3 0 5-2 7.5-4.4 0 2.5 2 4.4 5.1 4.4 3 0 6.1-1.7 8.8-4l-2.1 3.6h3.8l4.3-7.5v3c0 3.2.6 4.9 3.7 4.9s6.8-3.4 9.9-7c2.2-2.5 4-5.2 5.4-7-1.5 4-.7 11-4.3 11-1.3 0-1.8-1.3-1.8-1.3l-2.3 1.2s.6 3 4.1 3h1.2c3.8-.5 7.7-3.6 10.5-7zm-25.2-3l1.1-1.8c4.4-6.1 7.4-4.4 6-2.1l-1.8 3.1c-1.1 2-4.4 3.4-5.3.9zm25.1 5.7c-1.3 0-2.2 1-2.2 2.2s1 2.2 2.2 2.2c1.2 0 2.2-1 2.2-2.2s-1-2.2-2.2-2.2zm.2-1.5h3.8l11.9-20.7h-3.8z"/></g><path fill="#FFF" d="M80.4 277.6a2.5 2.5 0 0 1-1.5 2.2c-.3.2-.7.3-1 .3-.5 0-1-.1-1.4-.3a3 3 0 0 1-1-.7c-.3-.3-.5-.7-.6-1a4 4 0 0 1-.2-1.4 6 6 0 0 1 3.5-5.5 13 13 0 0 1 1-.5l1.4 2-.8.3-.9.6a3 3 0 0 0-.7.7l-.3 1c.7 0 1.3.2 1.8.6.5.4.7 1 .7 1.7zm7.9 0a2.4 2.4 0 0 1-.7 1.7 2.6 2.6 0 0 1-2 .8l-1.2-.3a3 3 0 0 1-1.1-.7l-.6-1c-.2-.4-.2-1-.2-1.4a6 6 0 0 1 1.8-4.3l.8-.7a8.8 8.8 0 0 1 2-1l1.4 2c-.3 0-.5.2-.8.3l-1 .6-.6.7c-.2.3-.3.7-.3 1 .7 0 1.2.2 1.7.6.5.4.8 1 .8 1.7zm265.1 58.9a2.5 2.5 0 0 1 1.5-2.2c.4-.2.7-.2 1.1-.2.5 0 1 0 1.3.2l1.1.7c.3.3.5.7.6 1l.2 1.4a6 6 0 0 1-1.8 4.3l-.8.7a8.2 8.2 0 0 1-1.6.9l-.4.1-1.4-2 .9-.3.8-.6.7-.7c.2-.3.3-.7.3-1-.6 0-1.2-.2-1.7-.6a2 2 0 0 1-.8-1.7zm-7.8 0a2.4 2.4 0 0 1 .6-1.7 2.6 2.6 0 0 1 2-.7 3 3 0 0 1 2.4 1l.5 1c.2.4.2.8.2 1.3a6 6 0 0 1-3.5 5.5 11.8 11.8 0 0 1-1 .5l-1.4-2 .8-.3.9-.6c.2-.2.5-.4.6-.7.2-.3.3-.7.3-1-.6 0-1.2-.2-1.7-.6a2 2 0 0 1-.7-1.7z"/></svg>